<svg version="1.1" xmlns="http://www.w3.org/2000/svg" style="display: block;" viewBox="0 0 2048 2048" width="1024" height="1024" preserveAspectRatio="none">
<path transform="translate(0,0)" fill="rgb(38,121,184)" d="M 993.016 423.055 C 1325.11 406.032 1608.05 661.621 1624.76 993.735 C 1641.47 1325.85 1385.62 1608.55 1053.49 1624.95 C 721.802 1641.32 439.56 1385.88 422.872 1054.21 C 406.184 722.536 661.359 440.055 993.016 423.055 z M 1053.46 1597.31 C 1370.63 1580.87 1614.23 1310.11 1597.16 992.972 C 1580.09 675.838 1308.85 432.78 991.747 450.475 C 675.535 468.121 433.306 738.443 450.325 1054.69 C 467.343 1370.94 737.185 1613.7 1053.46 1597.31 z"/>
<path transform="translate(0,0)" fill="rgb(38,121,184)" d="M 1010.71 500.958 C 1299.42 493.699 1539.39 721.786 1546.78 1010.49 C 1554.17 1299.2 1326.2 1539.27 1037.5 1546.79 C 748.606 1554.32 508.344 1326.17 500.947 1037.27 C 493.549 748.379 721.818 508.223 1010.71 500.958 z"/>
<g class="svgai-watermark" opacity="0.35" pointer-events="none"><g transform="translate(1577.0, 1869.5) scale(3.0797)"><path d="m10 0 2 7 8 2-8 2-2 7-2-7-8-2 8-2Z" fill="#FF7043"/><text x="25" y="30" font-family="Montserrat,sans-serif" font-weight="700" font-size="30" fill="#4E342E">SVG<tspan dx="8" fill="#FF7043">AI</tspan></text></g></g></svg>